<svg width="22" height="22" viewBox="0 0 22 22" fill="none" xmlns="http://www.w3.org/2000/svg">
<path d="M17.4167 6.4165H4.58333C3.57081 6.4165 2.75 7.23732 2.75 8.24984V16.4998C2.75 17.5124 3.57081 18.3332 4.58333 18.3332H17.4167C18.4292 18.3332 19.25 17.5124 19.25 16.4998V8.24984C19.25 7.23732 18.4292 6.4165 17.4167 6.4165Z" stroke="#64748B" stroke-width="1.5" stroke-linecap="round" stroke-linejoin="round"/>
<path d="M7.3335 6.41667V4.58333C7.3335 4.0971 7.52665 3.63079 7.87047 3.28697C8.21428 2.94315 8.6806 2.75 9.16683 2.75H12.8335C13.3197 2.75 13.786 2.94315 14.1299 3.28697C14.4737 3.63079 14.6668 4.0971 14.6668 4.58333V6.41667" stroke="#64748B" stroke-width="1.5" stroke-linecap="round" stroke-linejoin="round"/>
<path d="M11 11V11.0092" stroke="#64748B" stroke-width="2" stroke-linecap="round" stroke-linejoin="round"/>
<path d="M2.75 11.9165C5.30895 13.206 8.13453 13.8776 11 13.8776C13.8655 13.8776 16.6911 13.206 19.25 11.9165" stroke="#64748B" stroke-width="1.5" stroke-linecap="round" stroke-linejoin="round"/>
</svg>
