<svg width="653" height="152" viewBox="0 0 653 152" fill="none" xmlns="http://www.w3.org/2000/svg">
<path d="M1 93.9684C18 93.9684 30.5 71.0632 43.5327 71.0632C58.5653 71.0632 77.5 109.463 93.0707 109.463C109.651 109.463 119.5 89.2526 139.106 89.2526C164.5 89.2526 171.291 24.5789 190.646 24.5789C210 24.5789 217 128.5 237 128.5C257 128.5 270.679 68.5 287.5 68.5C302.886 68.5 320.485 89.2526 335.5 89.2526C356.5 89.2526 408.5 1.5 431 1.5C449.353 1.5 468.411 55.5 487.5 55.5C502.027 55.5 520.803 84.5 536 84.5C549.5 84.5 574.5 36.5 588.5 36.5C606.5 36.5 625.112 69.0421 652 69.0421V152L1 152V93.9684Z" fill="url(#paint0_linear_202_2203)"/>
<path d="M652 69.0421C625.112 69.0421 606.5 36.5 588.5 36.5C574.5 36.5 549.5 84.5 536 84.5C520.803 84.5 502.027 55.5 487.5 55.5C468.411 55.5 449.353 1.5 431 1.5C408.5 1.5 356.5 89.2526 335.5 89.2526C320.485 89.2526 302.886 68.5 287.5 68.5C270.679 68.5 257 128.5 237 128.5C217 128.5 210 24.5789 190.646 24.5789C171.291 24.5789 164.5 89.2526 139.106 89.2526C119.5 89.2526 109.651 109.463 93.0707 109.463C77.5 109.463 58.5653 71.0632 43.5327 71.0632C30.5 71.0632 18 93.9684 1 93.9684" stroke="#2563EB" stroke-width="2" stroke-linecap="round"/>
<defs>
<linearGradient id="paint0_linear_202_2203" x1="326.5" y1="152" x2="326.5" y2="-68" gradientUnits="userSpaceOnUse">
<stop stop-color="#2563EB" stop-opacity="0"/>
<stop offset="1" stop-color="#2563EB" stop-opacity="0.12"/>
</linearGradient>
</defs>
</svg>
