<svg width="32" height="32" viewBox="0 0 32 32" fill="none" xmlns="http://www.w3.org/2000/svg">
<path d="M9.33327 23.9996C7.66964 23.9996 6.07415 23.3675 4.89779 22.2422C3.72142 21.117 3.06055 19.5909 3.06055 17.9996C3.06055 16.4083 3.72142 14.8822 4.89779 13.757C6.07415 12.6318 7.66964 11.9996 9.33327 11.9996C9.72619 10.2492 10.8756 8.71092 12.5287 7.72323C13.3473 7.23417 14.2648 6.89501 15.229 6.72509C16.1931 6.55518 17.1851 6.55785 18.1481 6.73294C19.1111 6.90804 20.0264 7.25213 20.8417 7.74558C21.6569 8.23903 22.3562 8.87217 22.8996 9.60885C23.443 10.3455 23.8199 11.1713 24.0087 12.0391C24.1975 12.9068 24.1945 13.7996 23.9999 14.6663H25.3333C26.571 14.6663 27.7579 15.1579 28.6331 16.0331C29.5083 16.9083 29.9999 18.0953 29.9999 19.3329C29.9999 20.5706 29.5083 21.7576 28.6331 22.6328C27.7579 23.5079 26.571 23.9996 25.3333 23.9996H23.9999" stroke="#2563EB" stroke-width="2" stroke-linecap="round" stroke-linejoin="round"/>
<path d="M12 20L16 16L20 20" stroke="#2563EB" stroke-width="2" stroke-linecap="round" stroke-linejoin="round"/>
<path d="M16 16V28" stroke="#2563EB" stroke-width="2" stroke-linecap="round" stroke-linejoin="round"/>
</svg>
