<svg width="24" height="24" viewBox="0 0 24 24" fill="none" xmlns="http://www.w3.org/2000/svg">
<path d="M5 13.001C5.55228 13.001 6 12.5533 6 12.001C6 11.4487 5.55228 11.001 5 11.001C4.44772 11.001 4 11.4487 4 12.001C4 12.5533 4.44772 13.001 5 13.001Z" stroke="#64748B" stroke-width="2" stroke-linecap="round" stroke-linejoin="round"/>
<path d="M12 13.001C12.5523 13.001 13 12.5533 13 12.001C13 11.4487 12.5523 11.001 12 11.001C11.4477 11.001 11 11.4487 11 12.001C11 12.5533 11.4477 13.001 12 13.001Z" stroke="#64748B" stroke-width="2" stroke-linecap="round" stroke-linejoin="round"/>
<path d="M19 13.001C19.5523 13.001 20 12.5533 20 12.001C20 11.4487 19.5523 11.001 19 11.001C18.4477 11.001 18 11.4487 18 12.001C18 12.5533 18.4477 13.001 19 13.001Z" stroke="#64748B" stroke-width="2" stroke-linecap="round" stroke-linejoin="round"/>
</svg>
