<svg width="20" height="20" viewBox="0 0 20 20" fill="none" xmlns="http://www.w3.org/2000/svg">
<path d="M4.16683 10.8337C4.62707 10.8337 5.00016 10.4606 5.00016 10.0003C5.00016 9.54009 4.62707 9.16699 4.16683 9.16699C3.70659 9.16699 3.3335 9.54009 3.3335 10.0003C3.3335 10.4606 3.70659 10.8337 4.16683 10.8337Z" stroke="#64748B" stroke-width="2" stroke-linecap="round" stroke-linejoin="round"/>
<path d="M10.0003 10.8337C10.4606 10.8337 10.8337 10.4606 10.8337 10.0003C10.8337 9.54009 10.4606 9.16699 10.0003 9.16699C9.54009 9.16699 9.16699 9.54009 9.16699 10.0003C9.16699 10.4606 9.54009 10.8337 10.0003 10.8337Z" stroke="#64748B" stroke-width="2" stroke-linecap="round" stroke-linejoin="round"/>
<path d="M15.8333 10.8337C16.2936 10.8337 16.6667 10.4606 16.6667 10.0003C16.6667 9.54009 16.2936 9.16699 15.8333 9.16699C15.3731 9.16699 15 9.54009 15 10.0003C15 10.4606 15.3731 10.8337 15.8333 10.8337Z" stroke="#64748B" stroke-width="2" stroke-linecap="round" stroke-linejoin="round"/>
</svg>
