<svg width="28" height="29" viewBox="0 0 28 29" fill="none" xmlns="http://www.w3.org/2000/svg">
<path fill-rule="evenodd" clip-rule="evenodd" d="M0.529798 4.8766C0 6.15565 0 7.77712 0 11.0201V17.9801C0 21.223 0 22.8445 0.529798 24.1236C1.2362 25.829 2.59113 27.1839 4.29652 27.8903C5.57557 28.4201 7.19704 28.4201 10.44 28.4201H17.4C20.643 28.4201 22.2644 28.4201 23.5435 27.8903C25.2489 27.1839 26.6038 25.829 27.3102 24.1236C27.84 22.8445 27.84 21.223 27.84 17.9801V11.0201C27.84 7.77712 27.84 6.15565 27.3102 4.8766C26.6038 3.17121 25.2489 1.81627 23.5435 1.10988C22.2644 0.580078 20.643 0.580078 17.4 0.580078H10.44C7.19705 0.580078 5.57557 0.580078 4.29652 1.10988C2.59113 1.81627 1.2362 3.17121 0.529798 4.8766ZM16.0551 8.20236C16.085 8.09406 15.9589 8.01077 15.871 8.08078L8.10164 14.2711C8.02749 14.3302 8.05168 14.4484 8.14307 14.4737L12.2845 15.6164C12.3463 15.6335 12.3825 15.6974 12.3655 15.7591L11.0513 20.5217C11.0214 20.63 11.1475 20.7133 11.2354 20.6433L19.0048 14.453C19.0789 14.3939 19.0547 14.2756 18.9633 14.2504L14.8219 13.1077C14.7601 13.0906 14.7239 13.0267 14.7409 12.965L16.0551 8.20236Z" fill="#2563EB"/>
</svg>
