<svg width="34" height="34" viewBox="0 0 34 34" fill="none" xmlns="http://www.w3.org/2000/svg">
<path fill-rule="evenodd" clip-rule="evenodd" d="M0.632969 5.82656C0 7.35469 0 9.29192 0 13.1664V21.4817C0 25.3562 0 27.2934 0.632969 28.8216C1.47693 30.8591 3.09571 32.4778 5.13321 33.3218C6.66133 33.9548 8.59856 33.9548 12.473 33.9548H20.7884C24.6629 33.9548 26.6001 33.9548 28.1282 33.3218C30.1657 32.4778 31.7845 30.8591 32.6284 28.8216C33.2614 27.2934 33.2614 25.3562 33.2614 21.4817V13.1664C33.2614 9.29192 33.2614 7.35469 32.6284 5.82656C31.7845 3.78907 30.1657 2.17029 28.1282 1.32633C26.6001 0.693359 24.6629 0.693359 20.7884 0.693359H12.473C8.59856 0.693359 6.66133 0.693359 5.13321 1.32633C3.09571 2.17029 1.47693 3.78907 0.632969 5.82656ZM19.1819 9.79981C19.2176 9.67043 19.0669 9.57092 18.9619 9.65456L9.67958 17.0504C9.591 17.121 9.61989 17.2622 9.72908 17.2924L14.677 18.6577C14.7508 18.678 14.7941 18.7543 14.7737 18.8281L13.2036 24.5182C13.1679 24.6476 13.3186 24.7471 13.4236 24.6634L22.7059 17.2676C22.7945 17.1971 22.7656 17.0558 22.6564 17.0256L17.7085 15.6603C17.6347 15.64 17.5914 15.5637 17.6118 15.4899L19.1819 9.79981Z" fill="white"/>
</svg>
