<svg width="34" height="34" viewBox="0 0 34 34" fill="none" xmlns="http://www.w3.org/2000/svg">
<path fill-rule="evenodd" clip-rule="evenodd" d="M0.632969 5.82608C0 7.3542 0 9.29143 0 13.1659V21.4813C0 25.3557 0 27.293 0.632969 28.8211C1.47693 30.8586 3.09571 32.4774 5.13321 33.3213C6.66133 33.9543 8.59856 33.9543 12.473 33.9543H20.7884C24.6629 33.9543 26.6001 33.9543 28.1282 33.3213C30.1657 32.4774 31.7845 30.8586 32.6284 28.8211C33.2614 27.293 33.2614 25.3557 33.2614 21.4813V13.1659C33.2614 9.29143 33.2614 7.3542 32.6284 5.82608C31.7845 3.78858 30.1657 2.1698 28.1282 1.32584C26.6001 0.692871 24.6629 0.692871 20.7884 0.692871H12.473C8.59856 0.692871 6.66133 0.692871 5.13321 1.32584C3.09571 2.1698 1.47693 3.78858 0.632969 5.82608ZM19.1819 9.79935C19.2176 9.66996 19.0669 9.57045 18.9619 9.65409L9.67958 17.0499C9.591 17.1205 9.61989 17.2618 9.72908 17.2919L14.677 18.6572C14.7508 18.6776 14.7941 18.7539 14.7737 18.8277L13.2036 24.5177C13.1679 24.6471 13.3186 24.7466 13.4236 24.663L22.7059 17.2672C22.7945 17.1966 22.7656 17.0553 22.6564 17.0252L17.7085 15.6599C17.6347 15.6395 17.5914 15.5632 17.6118 15.4894L19.1819 9.79935Z" fill="white"/>
</svg>
