<svg width="21" height="20" viewBox="0 0 21 20" fill="none" xmlns="http://www.w3.org/2000/svg">
<path d="M19.0011 10.1941C19.0011 9.47471 18.9415 8.94971 18.8126 8.40527H10.4297V11.6525H15.3503C15.2511 12.4594 14.7154 13.6747 13.5249 14.4913L13.5082 14.6L16.1587 16.6123L16.3424 16.6303C18.0288 15.1039 19.0011 12.858 19.0011 10.1941" fill="#4285F4"/>
<path d="M10.4288 18.75C12.8395 18.75 14.8633 17.9722 16.3415 16.6305L13.524 14.4916C12.7701 15.0068 11.7581 15.3666 10.4288 15.3666C8.06773 15.3666 6.06379 13.8402 5.34944 11.7305L5.24473 11.7392L2.48868 13.8295L2.45264 13.9277C3.92087 16.786 6.93674 18.75 10.4288 18.75Z" fill="#34A853"/>
<path d="M5.35014 11.7302C5.16165 11.1858 5.05257 10.6024 5.05257 9.99967C5.05257 9.39686 5.16165 8.81355 5.34022 8.26911L5.33523 8.15316L2.54464 6.0293L2.45333 6.07186C1.8482 7.25798 1.50098 8.58995 1.50098 9.99967C1.50098 11.4094 1.8482 12.7413 2.45333 13.9274L5.35014 11.7302" fill="#FBBC05"/>
<path d="M10.4289 4.63331C12.1054 4.63331 13.2364 5.34303 13.8812 5.93613L16.4011 3.525C14.8535 2.11528 12.8395 1.25 10.4289 1.25C6.93676 1.25 3.92088 3.21387 2.45264 6.07218L5.33954 8.26944C6.06381 6.15972 8.06776 4.63331 10.4289 4.63331" fill="#EB4335"/>
</svg>
