<svg width="706" height="198" viewBox="0 0 706 198" fill="none" xmlns="http://www.w3.org/2000/svg">
<path d="M1 89.4684C14.5 89.4684 19 67 32 67C48.2334 67 99.1856 106 116 106C130.5 106 137.328 84.7526 158.5 84.7526C185.922 84.7526 193.5 20.5 210.5 20.5C229.5 20.5 241 124 259.5 124C278 124 291.336 55 309.5 55C326.115 55 343 88.5 356.5 88.5C379 88.5 433.5 1.5 447.5 1.5C467.319 1.5 469.5 55 501 55C528 55 541.422 88.5 556 88.5C572.5 88.5 618.5 32 635.428 32C654.866 32 675.464 65 704.5 65V197.5L1 197.5V89.4684Z" fill="url(#paint0_linear_237_3094)"/>
<path d="M704.5 65C675.464 65 654.866 32 635.428 32C618.5 32 572.5 88.5 556 88.5C541.422 88.5 528 55 501 55C469.5 55 467.319 1.5 447.5 1.5C433.5 1.5 379 88.5 356.5 88.5C343 88.5 326.115 55 309.5 55C291.336 55 278 124 259.5 124C241 124 229.5 20.5 210.5 20.5C193.5 20.5 185.922 84.7526 158.5 84.7526C137.328 84.7526 130.5 106 116 106C99.1856 106 48.2334 67 32 67C19 67 14.5 89.4684 1 89.4684" stroke="#2563EB" stroke-width="2" stroke-linecap="round"/>
<defs>
<linearGradient id="paint0_linear_237_3094" x1="352.75" y1="197.5" x2="352.75" y2="-163.5" gradientUnits="userSpaceOnUse">
<stop stop-color="#2563EB" stop-opacity="0"/>
<stop offset="1" stop-color="#2563EB" stop-opacity="0.12"/>
</linearGradient>
</defs>
</svg>
