<svg width="48" height="48" viewBox="0 0 48 48" fill="none" xmlns="http://www.w3.org/2000/svg">
<rect width="48" height="48" rx="12" fill="#FDF2F8"/>
<path d="M24 20V24L26 26" stroke="#ED4F9D" stroke-width="1.5" stroke-linecap="round" stroke-linejoin="round"/>
<path d="M15.0498 23.0001C15.2739 20.8001 16.3001 18.7597 17.9325 17.268C19.565 15.7764 21.6895 14.938 23.9007 14.9127C26.1119 14.8874 28.255 15.6771 29.9211 17.1311C31.5872 18.5851 32.6597 20.6015 32.934 22.7958C33.2083 24.99 32.6651 27.2085 31.4082 29.0278C30.1512 30.8472 28.2684 32.1401 26.1191 32.6599C23.9697 33.1797 21.7042 32.89 19.7548 31.8461C17.8054 30.8022 15.0498 27.0001 15.0498 27.0001M15.0498 32.0001V27.0001M15.0498 27.0001H20.0498" stroke="#ED4F9D" stroke-width="1.5" stroke-linecap="round" stroke-linejoin="round"/>
</svg>
