<svg width="40" height="40" viewBox="0 0 40 40" fill="none" xmlns="http://www.w3.org/2000/svg">
<rect width="40" height="40" rx="12" fill="#FFFBEB"/>
<path d="M20 16V20L22 22" stroke="#F6A723" stroke-width="1.5" stroke-linecap="round" stroke-linejoin="round"/>
<path d="M11.0498 19.0001C11.2739 16.8001 12.3001 14.7597 13.9325 13.268C15.565 11.7764 17.6895 10.938 19.9007 10.9127C22.1119 10.8874 24.255 11.6771 25.9211 13.1311C27.5872 14.5851 28.6597 16.6015 28.934 18.7958C29.2083 20.99 28.6651 23.2085 27.4082 25.0278C26.1512 26.8472 24.2684 28.1401 22.1191 28.6599C19.9697 29.1797 17.7042 28.89 15.7548 27.8461C13.8054 26.8022 11.0498 23.0001 11.0498 23.0001M11.0498 28.0001V23.0001M11.0498 23.0001H16.0498" stroke="#F6A723" stroke-width="1.5" stroke-linecap="round" stroke-linejoin="round"/>
</svg>
