<svg width="48" height="48" viewBox="0 0 48 48" fill="none" xmlns="http://www.w3.org/2000/svg">
<rect width="48" height="48" rx="12" fill="#F8FAFC"/>
<path d="M24 33C28.9706 33 33 28.9706 33 24C33 19.0294 28.9706 15 24 15C19.0294 15 15 19.0294 15 24C15 28.9706 19.0294 33 24 33Z" stroke="#38BDF8" stroke-width="2" stroke-linecap="round" stroke-linejoin="round"/>
<path d="M26.8 21.0002C26.6188 20.6859 26.3557 20.4269 26.0386 20.2507C25.7215 20.0746 25.3625 19.988 25 20.0002H23C22.4696 20.0002 21.9609 20.2109 21.5858 20.5859C21.2107 20.961 21 21.4697 21 22.0002C21 22.5306 21.2107 23.0393 21.5858 23.4144C21.9609 23.7894 22.4696 24.0002 23 24.0002H25C25.5304 24.0002 26.0391 24.2109 26.4142 24.5859C26.7893 24.961 27 25.4697 27 26.0002C27 26.5306 26.7893 27.0393 26.4142 27.4144C26.0391 27.7894 25.5304 28.0002 25 28.0002H23C22.6375 28.0124 22.2785 27.9258 21.9614 27.7496C21.6443 27.5735 21.3812 27.3144 21.2 27.0002" stroke="#38BDF8" stroke-width="2" stroke-linecap="round" stroke-linejoin="round"/>
<path d="M24 28V30M24 18V20V18Z" stroke="#38BDF8" stroke-width="2" stroke-linecap="round" stroke-linejoin="round"/>
</svg>
