<svg width="22" height="22" viewBox="0 0 22 22" fill="none" xmlns="http://www.w3.org/2000/svg">
<path d="M12.8333 7.33366V5.50033C12.8333 5.0141 12.6402 4.54778 12.2964 4.20396C11.9525 3.86015 11.4862 3.66699 11 3.66699H4.58333C4.0971 3.66699 3.63079 3.86015 3.28697 4.20396C2.94315 4.54778 2.75 5.0141 2.75 5.50033V16.5003C2.75 16.9866 2.94315 17.4529 3.28697 17.7967C3.63079 18.1405 4.0971 18.3337 4.58333 18.3337H11C11.4862 18.3337 11.9525 18.1405 12.2964 17.7967C12.6402 17.4529 12.8333 16.9866 12.8333 16.5003V14.667" stroke="#64748B" stroke-width="1.5" stroke-linecap="round" stroke-linejoin="round"/>
<path d="M6.4165 11H19.2498M19.2498 11L16.4998 8.25M19.2498 11L16.4998 13.75" stroke="#64748B" stroke-width="1.5" stroke-linecap="round" stroke-linejoin="round"/>
</svg>
