<svg width="22" height="22" viewBox="0 0 22 22" fill="none" xmlns="http://www.w3.org/2000/svg">
<path d="M5.49984 19.2502C6.51236 19.2502 7.33317 18.4294 7.33317 17.4168C7.33317 16.4043 6.51236 15.5835 5.49984 15.5835C4.48732 15.5835 3.6665 16.4043 3.6665 17.4168C3.6665 18.4294 4.48732 19.2502 5.49984 19.2502Z" stroke="#64748B" stroke-width="1.5" stroke-linecap="round" stroke-linejoin="round"/>
<path d="M15.5833 19.2502C16.5959 19.2502 17.4167 18.4294 17.4167 17.4168C17.4167 16.4043 16.5959 15.5835 15.5833 15.5835C14.5708 15.5835 13.75 16.4043 13.75 17.4168C13.75 18.4294 14.5708 19.2502 15.5833 19.2502Z" stroke="#64748B" stroke-width="1.5" stroke-linecap="round" stroke-linejoin="round"/>
<path d="M15.5832 15.5833H5.49984V2.75H3.6665" stroke="#64748B" stroke-width="1.5" stroke-linecap="round" stroke-linejoin="round"/>
<path d="M18.3333 5.5L17.4167 11.9167H5.5" stroke="#64748B" stroke-width="1.5" stroke-linecap="round" stroke-linejoin="round"/>
<path d="M9.1665 9.1665L14.6665 3.6665" stroke="#64748B" stroke-width="1.5" stroke-linecap="round" stroke-linejoin="round"/>
<path d="M9.62484 4.58317C9.87797 4.58317 10.0832 4.37797 10.0832 4.12484C10.0832 3.87171 9.87797 3.6665 9.62484 3.6665C9.37171 3.6665 9.1665 3.87171 9.1665 4.12484C9.1665 4.37797 9.37171 4.58317 9.62484 4.58317Z" stroke="#64748B" stroke-width="1.5" stroke-linecap="round" stroke-linejoin="round"/>
<path d="M14.2083 9.16667C14.4615 9.16667 14.6667 8.96146 14.6667 8.70833C14.6667 8.4552 14.4615 8.25 14.2083 8.25C13.9552 8.25 13.75 8.4552 13.75 8.70833C13.75 8.96146 13.9552 9.16667 14.2083 9.16667Z" stroke="#64748B" stroke-width="1.5" stroke-linecap="round" stroke-linejoin="round"/>
</svg>
